:SAMPLES-PER-SECOND 30
:FULLY-SPECIFIED
:DEGREES
375
root  -39.7669 34.6526 9.35899 -172.207 38.9834 177.348
RightUpLeg  -25.7763 -27.6903 6.56221
RightLeg  6.19961 -8.83954 -0.38398
RightFoot  11.0369 0.201382 -1.50191
RightToes  -16.9969 -0.0653579 -0.152249
Spine  -0.202805 0.444392 -2.1374
Spine1  -0.440068 0.982051 -3.54552
HEad  -76.7169 -1.39676 2.31265
LeftShoulder1  -1.94126e-019 -3.10601e-018 -2.51263e-017
LeftArm  12.6396 30.5579 -65.0042
LeftForeArm  129.435 -70.2941 -147.214
LeftHand  0.200337 0.860023 -5.31836
RightShoulder  -4.96962e-017 0 -2.36833e-017
RightArm  22.3739 -15.4159 71.8765
RightForeArm  154.804 80.2746 119.312
RightHand  -0.211106 4.9616 -2.66705
LeftUpLeg  -11.232 6.86894 -6.46221
LeftLeg  10.9924 14.1536 1.79527
LeftFoot  -2.31719 -0.0117991 -0.421874
LeftToes  -18.3215 1.49739e-006 1.00523e-007
376
root  -39.5284 34.6266 9.16452 -172.38 39.1023 177.173
RightUpLeg  -23.9545 -24.3684 5.30295
RightLeg  4.34907 -8.70934 -0.0980981
RightFoot  12.9156 0.265103 -1.75936
RightToes  -13.4889 -0.0482113 -0.122523
Spine  -0.224633 0.323142 -2.0839
Spine1  -0.476836 0.737717 -3.43503
HEad  -76.2409 -1.23081 1.87783
LeftShoulder1  -1.94126e-019 -3.10601e-018 -2.51263e-017
LeftArm  13.0242 29.8466 -65.6942
LeftForeArm  129.353 -70.4945 -146.851
LeftHand  0.181813 1.07763 -5.12103
RightShoulder  -4.96962e-017 0 -2.36833e-017
RightArm  22.1953 -15.3099 71.9993
RightForeArm  154.759 80.2837 119.228
RightHand  -0.228591 4.86376 -2.88437
LeftUpLeg  -10.7728 6.75714 -6.42186
LeftLeg  11.2154 14.3302 1.87325
LeftFoot  -2.65612 -0.0157368 -0.517251
LeftToes  -18.2961 1.49739e-006 1.00523e-007
377
root  -39.2521 34.6192 8.93301 -172.484 39.0966 177.283
RightUpLeg  -22.9392 -23.0896 4.73928
RightLeg  4.19316 -10.057 -0.0857964
RightFoot  12.9459 0.3016 -2.0678
RightToes  -12.967 -0.0458172 -0.118013
Spine  -0.246864 0.186313 -1.89696
Spine1  -0.510372 0.459422 -3.05519
HEad  -75.5017 -1.13355 1.35638
LeftShoulder1  -1.94126e-019 -3.10601e-018 -2.51263e-017
LeftArm  13.0568 29.316 -66.7206
LeftForeArm  129.722 -70.7179 -146.502
LeftHand  0.161966 1.26674 -4.8252
RightShoulder  -4.96962e-017 0 -2.36833e-017
RightArm  21.6372 -15.7499 71.7988
RightForeArm  154.514 80.1941 119.785
RightHand  -0.23529 4.63886 -3.01285
LeftUpLeg  -10.017 6.31968 -6.13347
LeftLeg  11.2215 14.8072 1.93581
LeftFoot  -2.90893 -0.0195615 -0.608863
LeftToes  -18.0386 1.49739e-006 1.00523e-007
378
root  -38.9181 34.6334 8.70642 -172.213 39.1498 177.829
RightUpLeg  -22.4514 -23.7605 5.18257
RightLeg  4.62301 -9.20701 -0.147425
RightFoot  12.7339 0.271185 -1.84475
RightToes  -14.4234 -0.046134 -0.130543
Spine  -0.324152 0.0885179 -1.57045
Spine1  -0.648159 0.2554 -2.39221
HEad  -74.7678 -0.935765 0.878816
LeftShoulder1  -1.94126e-019 -3.10601e-018 -2.51263e-017
LeftArm  12.9857 29.1027 -67.9425
LeftForeArm  129.917 -70.9697 -146.067
LeftHand  0.159284 0.688202 -4.07231
RightShoulder  -4.96962e-017 0 -2.36833e-017
RightArm  20.9609 -16.5573 71.2647
RightForeArm  154.591 79.9913 121.191
RightHand  -0.225303 4.104 -3.02641
LeftUpLeg  -9.28746 6.07695 -5.47091
LeftLeg  11.1573 15.1493 1.96247
LeftFoot  -3.23069 -0.0247502 -0.716082
LeftToes  -16.9099 1.49739e-006 1.00523e-007
379
root  -38.5576 34.6614 8.49579 -171.662 39.4058 178.564
RightUpLeg  -22.0584 -24.0411 5.80849
RightLeg  4.99496 -8.51122 -0.191444
RightFoot  12.4181 0.242428 -1.6468
RightToes  -15.8334 -0.0476433 -0.142507
Spine  -0.468606 0.05132 -1.16686
Spine1  -0.92062 0.175028 -1.57551
HEad  -73.9353 -0.631937 0.605062
LeftShoulder1  -1.94126e-019 -3.10601e-018 -2.51263e-017
LeftArm  12.4825 29.2337 -69.2825
LeftForeArm  130.088 -70.9407 -146.143
LeftHand  0.150959 0.820037 -3.99711
RightShoulder  -4.96962e-017 0 -2.36833e-017
RightArm  20.2958 -17.5917 70.4892
RightForeArm  154.905 79.7048 123.11
RightHand  -0.225103 3.61148 -3.15631
LeftUpLeg  -8.61679 5.87534 -4.66847
LeftLeg  10.9082 15.6692 1.95988
LeftFoot  -3.36794 -0.0278798 -0.786744
LeftToes  -15.8492 1.49739e-006 1.00523e-007
380
root  -38.1655 34.6846 8.29795 -170.961 39.8784 179.339
RightUpLeg  -21.4184 -22.9968 6.29634
RightLeg  4.85409 -8.99224 -0.180134
RightFoot  11.9697 0.237401 -1.68048
RightToes  -15.3172 -0.0496955 -0.140062
Spine  -0.636299 0.0627906 -0.796924
Spine1  -1.24288 0.199578 -0.830321
HEad  -73.2475 -0.31492 0.654695
LeftShoulder1  -1.94126e-019 -3.10601e-018 -2.51263e-017
LeftArm  12.2413 29.4923 -70.2547
LeftForeArm  130.208 -70.6224 -146.735
LeftHand  0.126479 1.03299 -3.56808
RightShoulder  -4.96962e-017 0 -2.36833e-017
RightArm  19.6404 -18.6224 69.7194
RightForeArm  154.72 79.3054 125.383
RightHand  -0.20059 3.2237 -2.94091
LeftUpLeg  -8.02393 5.93834 -3.82363
LeftLeg  10.6285 16.1383 1.93821
LeftFoot  -3.47936 -0.0306876 -0.848795
LeftToes  -14.6927 1.49739e-006 1.00523e-007
381
root  -37.7435 34.6981 8.09705 -170.322 40.2136 -179.938
RightUpLeg  -20.4881 -22.2728 6.82225
RightLeg  4.21737 -9.33509 -0.0836884
RightFoot  11.5549 0.229571 -1.68328
RightToes  -14.8159 -0.0516402 -0.133891
Spine  -0.775703 0.0203762 -0.497828
Spine1  -1.51387 0.12247 -0.23079
HEad  -72.7493 -0.0583809 1.07614
LeftShoulder1  -1.94126e-019 -3.10601e-018 -2.51263e-017
LeftArm  12.2886 29.6952 -70.6576
LeftForeArm  130.753 -70.2209 -147.509
LeftHand  0.130036 0.961145 -3.59278
RightShoulder  -4.96962e-017 0 -2.36833e-017
RightArm  19.1105 -19.5334 69.0513
RightForeArm  154.643 78.9027 127.497
RightHand  -0.175061 3.20871 -2.6003
LeftUpLeg  -7.39155 5.74554 -3.01853
LeftLeg  10.3131 16.8347 1.92699
LeftFoot  -3.35118 -0.0297439 -0.855201
LeftToes  -11.9939 1.49739e-006 1.00523e-007
382
root  -37.3027 34.7078 7.87634 -169.815 40.3987 -179.243
RightUpLeg  -19.347 -22.4867 7.46537
RightLeg  3.34284 -8.84668 0.0549843
RightFoot  11.1291 0.204808 -1.51954
RightToes  -14.4708 -0.0528271 -0.130949
Spine  -0.9061 -0.10362 -0.171959
Spine1  -1.77035 -0.117292 0.423864
HEad  -72.1329 0.10512 1.21705
LeftShoulder1  -1.94126e-019 -3.10601e-018 -2.51263e-017
LeftArm  12.5984 29.7525 -70.8586
LeftForeArm  131.023 -70.1522 -147.661
LeftHand  0.133469 0.857046 -3.58257
RightShoulder  -4.96962e-017 0 -2.36833e-017
RightArm  18.8972 -20.1371 68.1665
RightForeArm  154.388 78.6462 128.694
RightHand  -0.163565 2.91149 -2.51083
LeftUpLeg  -6.55364 4.04772 -2.28665
LeftLeg  9.971 19.0319 2.05692
LeftFoot  -3.45847 -0.0361211 -1.03485
LeftToes  -9.0871 1.49739e-006 1.00523e-007
383
root  -36.8116 34.716 7.64375 -169.287 40.6129 -178.168
RightUpLeg  -17.6888 -22.4544 8.22551
RightLeg  2.17798 -8.53485 0.225745
RightFoot  10.881 0.190963 -1.42425
RightToes  -14.4877 -0.0532737 -0.12882
Spine  -0.995632 -0.219805 0.273876
Spine1  -1.94245 -0.345384 1.33154
HEad  -71.1614 0.328667 1.20887
LeftShoulder1  -1.94126e-019 -3.10601e-018 -2.51263e-017
LeftArm  12.6284 29.7651 -71.1669
LeftForeArm  131.139 -70.3608 -147.318
LeftHand  0.171487 0.662824 -4.34934
RightShoulder  -4.96962e-017 0 -2.36833e-017
RightArm  19.0303 -20.3849 66.9329
RightForeArm  153.627 78.6442 128.495
RightHand  -0.120606 3.14472 -1.87429
LeftUpLeg  -5.62577 3.37939 -1.14547
LeftLeg  10.16 20.1248 2.236
LeftFoot  -3.7382 -0.0448724 -1.21341
LeftToes  -9.1263 1.49739e-006 1.00523e-007
384
root  -36.3264 34.7152 7.40159 -168.907 40.9142 -177.358
RightUpLeg  -16.2916 -22.0509 8.68385
RightLeg  1.56951 -8.56476 0.317106
RightFoot  10.3938 0.17627 -1.3574
RightToes  -14.8974 -0.0534526 -0.126954
Spine  -1.10996 -0.310207 0.56093
Spine1  -2.16213 -0.504975 1.9593
HEad  -70.0186 0.477986 1.31771
LeftShoulder1  -1.94126e-019 -3.10601e-018 -2.51263e-017
LeftArm  12.7336 29.7349 -71.1323
LeftForeArm  131.794 -70.5473 -147.078
LeftHand  0.213488 0.449253 -5.12553
RightShoulder  -4.96962e-017 0 -2.36833e-017
RightArm  19.5611 -20.5962 65.8056
RightForeArm  152.629 78.8069 127.419
RightHand  -0.0984523 3.19098 -1.56766
LeftUpLeg  -4.83427 3.82445 -0.15152
LeftLeg  10.5895 20.0483 2.3768
LeftFoot  -3.98168 -0.050718 -1.29741
LeftToes  -9.81027 1.49739e-006 1.00523e-007
385
root  -35.8662 34.6971 7.19843 -168.323 41.1082 -176.469
RightUpLeg  -15.3768 -21.6706 9.32899
RightLeg  1.42499 -8.67188 0.342843
RightFoot  9.68175 0.156627 -1.26867
RightToes  -14.7437 -0.0533966 -0.12537
Spine  -1.26325 -0.478586 0.926302
Spine1  -2.46525 -0.824083 2.71677
HEad  -69.0015 0.880004 1.25809
LeftShoulder1  -1.94126e-019 -3.10601e-018 -2.51263e-017
LeftArm  12.9461 29.7611 -71.0447
LeftForeArm  132.129 -70.5495 -147.117
LeftHand  0.226704 0.42465 -5.40806
RightShoulder  -4.96962e-017 0 -2.36833e-017
RightArm  20.579 -20.6862 64.4131
RightForeArm  152.265 78.8272 127.21
RightHand  -0.105963 3.05099 -1.68679
LeftUpLeg  -4.71248 4.51091 0.915118
LeftLeg  11.9307 19.6801 2.79351
LeftFoot  -4.58456 -0.0660858 -1.48926
LeftToes  -10.3063 1.49739e-006 1.00523e-007
386
root  -35.4323 34.6652 7.03306 -167.72 41.3071 -175.606
RightUpLeg  -14.8155 -21.7483 10.1072
RightLeg  1.66386 -8.34651 0.295367
RightFoot  8.80367 0.128062 -1.08546
RightToes  -14.1052 -0.0531389 -0.124086
Spine  -1.34668 -0.559243 1.24308
Spine1  -2.62717 -0.971717 3.35273
HEad  -68.5353 1.17043 1.36051
LeftShoulder1  -1.94126e-019 -3.10601e-018 -2.51263e-017
LeftArm  13.5501 29.2976 -70.7801
LeftForeArm  132.174 -70.5161 -147.178
LeftHand  0.242872 0.298687 -5.62732
RightShoulder  -4.96962e-017 0 -2.36833e-017
RightArm  21.1434 -20.8267 63.2082
RightForeArm  153.178 78.6672 128.246
RightHand  -0.0981533 3.01555 -1.58339
LeftUpLeg  -4.95052 5.39643 1.98243
LeftLeg  13.8174 19.0956 3.34515
LeftFoot  -5.36595 -0.0880672 -1.71759
LeftToes  -10.6621 1.49739e-006 1.00523e-007
387
root  -35.0085 34.626 6.88511 -167.11 41.6117 -174.648
RightUpLeg  -14.1917 -21.631 10.8981
RightLeg  1.88232 -8.13349 0.256964
RightFoot  7.98859 0.105601 -0.93619
RightToes  -13.5584 -0.0527122 -0.123122
Spine  -1.36415 -0.518178 1.54493
Spine1  -2.65256 -0.878199 3.9521
HEad  -68.3757 1.29248 1.46768
LeftShoulder1  -1.94126e-019 -3.10601e-018 -2.51263e-017
LeftArm  14.3154 28.4766 -70.6534
LeftForeArm  131.932 -70.4802 -147.204
LeftHand  0.247207 0.242566 -5.65632
RightShoulder  -4.96962e-017 0 -2.36833e-017
RightArm  21.2902 -21.0427 62.2266
RightForeArm  154.951 78.4522 129.723
RightHand  -0.10208 3.04744 -1.63379
LeftUpLeg  -5.31899 6.63933 3.15048
LeftLeg  16.0823 18.253 3.9374
LeftFoot  -6.14545 -0.110842 -1.90305
LeftToes  -11.516 1.49739e-006 1.00523e-007
